<svg width="357" xmlns="http://www.w3.org/2000/svg" height="357" id="screenshot-a07cc1d4-014c-80a1-8007-0fb7e345ae03" viewBox="0 0 357 357" xmlns:xlink="http://www.w3.org/1999/xlink" fill="none" version="1.1"><g id="shape-a07cc1d4-014c-80a1-8007-0fb7e345ae03" rx="0" ry="0"><g id="shape-a07cc1d4-014c-80a1-8007-0fb3c4d599f4"><defs><linearGradient id="fill-color-gradient-render-2-0" x1="0.00793271200112742" y1="0.49308002740556883" x2="1.0006355256106485" y2="0.49613445099377396" gradientTransform=""><stop offset="0" stop-color="#2562eb" stop-opacity="1"/><stop offset="1" stop-color="#7a3bed" stop-opacity="1"/></linearGradient><pattern patternUnits="userSpaceOnUse" x="0" y="0" width="356.9999999999998" height="356.9999999999999" id="fill-0-render-2"><g><rect width="356.9999999999998" height="356.9999999999999" style="fill: url(&quot;#fill-color-gradient-render-2-0&quot;);"/></g></pattern></defs><g class="fills" id="fills-a07cc1d4-014c-80a1-8007-0fb3c4d599f4"><rect rx="20" ry="20" x="0" y="0" transform="matrix(1.000000, 0.000000, 0.000000, 1.000000, 0.000000, 0.000000)" width="356.9999999999998" height="356.9999999999999" fill="url(#fill-0-render-2)"/></g></g><g id="shape-a07cc1d4-014c-80a1-8007-0fb6d3b459a6"><g class="fills" id="fills-a07cc1d4-014c-80a1-8007-0fb6d3b459a6"><path d="M0,18.545455932617188C0,8.3099365234375,8.961669921875,0,20,0L337,0C348.038330078125,0,357,8.3099365234375,357,18.545455932617188L357,51L0,51L0,18.545455932617188" style="fill: rgb(45, 45, 45); fill-opacity: 0.25;"/></g></g><g id="shape-a07cc1d4-014c-80a1-8007-0fb4167749eb"><g class="fills" id="fills-a07cc1d4-014c-80a1-8007-0fb4167749eb"><path d="M188.51904296875,240.80001831054688L158.66351318359375,239.89999389648438C158.66351318359375,239.89999389648438,174.28302001953125,238.2156982421875,195.48529052734375,229.10000610351562C214.7537841796875,220.81576538085938,223.35052490234375,214.70001220703125,223.35052490234375,214.70001220703125L202.45159912109375,212.89999389648438C202.45159912109375,212.89999389648438,237.6368408203125,201.42642211914062,254.20123291015625,163.39999389648438C280.07598876953125,104,264.153076171875,68,264.153076171875,68C264.153076171875,68,260.48138427734375,98.87225341796875,234.29754638671875,122.90000915527344C166.62493896484375,185,158.66351318359375,176,130.79840087890625,212C88.335693359375,266.8589172363281,89.0006103515625,329,89.0006103515625,329L104.923583984375,312.7999572753906C104.923583984375,312.7999572753906,96.869140625,302.9047546386719,115.87060546875,265.0999755859375C130.79840087890625,235.39999389648438,163.63946533203125,203.9000244140625,163.63946533203125,203.9000244140625C163.63946533203125,203.9000244140625,151.07098388671875,215.35104370117188,134.779052734375,240.80001831054688C121.87896728515625,260.9510192871094,119.851318359375,272.29998779296875,119.851318359375,272.29998779296875L188.51904296875,240.80001831054688" style="fill: rgb(255, 255, 255); fill-opacity: 1;"/></g></g><g id="shape-a07cc1d4-014c-80a1-8007-0fb4e7ef694b"><g class="fills" id="fills-a07cc1d4-014c-80a1-8007-0fb4e7ef694b"><path d="M331,16L312,35M312,16L331,35"/></g><g id="strokes-a6b71162-780c-80ee-8007-0fb7f8db74a3-a07cc1d4-014c-80a1-8007-0fb4e7ef694b" class="strokes"><g class="stroke-shape"><path d="M331,16L312,35M312,16L331,35" style="fill: none; stroke-width: 6; stroke: rgb(255, 255, 255); stroke-opacity: 1; stroke-linecap: round;"/></g></g></g><g id="shape-a07cc1d4-014c-80a1-8007-0fb58b5fa978"><g class="fills" id="fills-a07cc1d4-014c-80a1-8007-0fb58b5fa978"><rect rx="2" ry="2" x="266" y="18" transform="matrix(1.000000, 0.000000, 0.000000, 1.000000, 0.000000, 0.000000)" width="20" height="20"/></g><g id="strokes-a6b71162-780c-80ee-8007-0fb7f8dc3688-a07cc1d4-014c-80a1-8007-0fb58b5fa978" class="strokes"><g class="inner-stroke-shape" transform="matrix(1.000000, 0.000000, 0.000000, 1.000000, 0.000000, 0.000000)"><defs><clipPath id="inner-stroke-render-6-a07cc1d4-014c-80a1-8007-0fb58b5fa978-0"><use href="#stroke-shape-render-6-a07cc1d4-014c-80a1-8007-0fb58b5fa978-0"/></clipPath><rect rx="2" ry="2" x="266" y="18" width="20" height="20" id="stroke-shape-render-6-a07cc1d4-014c-80a1-8007-0fb58b5fa978-0" style="fill: none; stroke-width: 8; stroke: rgb(255, 255, 255); stroke-opacity: 1;"/></defs><use href="#stroke-shape-render-6-a07cc1d4-014c-80a1-8007-0fb58b5fa978-0" clip-path="url('#inner-stroke-render-6-a07cc1d4-014c-80a1-8007-0fb58b5fa978-0')"/></g></g></g><g id="shape-a07cc1d4-014c-80a1-8007-0fb6042d2284"><g class="fills" id="fills-a07cc1d4-014c-80a1-8007-0fb6042d2284"><rect rx="2" ry="2" x="225" y="32" transform="matrix(1.000000, 0.000000, 0.000000, 1.000000, 0.000000, 0.000000)" width="24" height="6"/></g><g id="strokes-a6b71162-780c-80ee-8007-0fb7f8dcbbc4-a07cc1d4-014c-80a1-8007-0fb6042d2284" class="strokes"><g class="inner-stroke-shape" transform="matrix(1.000000, 0.000000, 0.000000, 1.000000, 0.000000, 0.000000)"><defs><clipPath id="inner-stroke-render-7-a07cc1d4-014c-80a1-8007-0fb6042d2284-0"><use href="#stroke-shape-render-7-a07cc1d4-014c-80a1-8007-0fb6042d2284-0"/></clipPath><rect rx="2" ry="2" x="225" y="32" width="24" height="6" id="stroke-shape-render-7-a07cc1d4-014c-80a1-8007-0fb6042d2284-0" style="fill: none; stroke-width: 8; stroke: rgb(255, 255, 255); stroke-opacity: 1;"/></defs><use href="#stroke-shape-render-7-a07cc1d4-014c-80a1-8007-0fb6042d2284-0" clip-path="url('#inner-stroke-render-7-a07cc1d4-014c-80a1-8007-0fb6042d2284-0')"/></g></g></g><g id="shape-a07cc1d4-014c-80a1-8007-0fb76a2b0c47"><g class="fills" id="fills-a07cc1d4-014c-80a1-8007-0fb76a2b0c47"><path d="M274,20.5L274,16.2591552734375C274,14,274.69818115234375,14,276.0946044921875,14C278.4224853515625,14,282.69085693359375,14,288.89959716796875,14C289.6331787109375,14,290,14.5,290,15.5C290,24.514907836914062,290,21.491622924804688,290,29.022369384765625C290,29.674118041992188,289.7177734375,30,289.15325927734375,30C286.05108642578125,30,284.5,30,284.5,30"/></g><g id="strokes-a6b71162-780c-80ee-8007-0fb7f8dcd8f2-a07cc1d4-014c-80a1-8007-0fb76a2b0c47" class="strokes"><g class="stroke-shape"><path d="M274,20.5L274,16.2591552734375C274,14,274.69818115234375,14,276.0946044921875,14C278.4224853515625,14,282.69085693359375,14,288.89959716796875,14C289.6331787109375,14,290,14.5,290,15.5C290,24.514907836914062,290,21.491622924804688,290,29.022369384765625C290,29.674118041992188,289.7177734375,30,289.15325927734375,30C286.05108642578125,30,284.5,30,284.5,30" style="fill: none; stroke-width: 4; stroke: rgb(255, 255, 255); stroke-opacity: 1;"/></g></g></g></g></svg>